<svg version="1.2" xmlns="http://www.w3.org/2000/svg" viewBox="0 0 14 15" width="14" height="15"><style>.a{fill:#616161}</style><path class="a" d="m10 5.8q0.2 1.8 0 3.5h3.6q0.2-0.8 0.2-1.7 0-0.9-0.2-1.8zm-4.9 4.4h3.9q-0.3 1.2-0.7 2.2-0.6 1.2-1.3 2-0.7-0.8-1.2-2-0.5-1-0.7-2.2zm4.7-5.2q-0.4-2.4-1.6-4.1 1.7 0.3 3.1 1.4 1.3 1.1 2 2.7zm-0.8 0.8q0.3 1.8 0 3.5h-4.1q-0.2-1.7 0-3.5zm-4.9 4.4q0.4 2.4 1.6 4.1-1.7-0.3-3.1-1.4-1.3-1.1-2-2.7zm5.7 0h3.4q-0.6 1.6-2 2.7-1.3 1.1-3 1.4 1.1-1.7 1.6-4.1zm-0.9-5.2h-3.9q0.3-1.2 0.7-2.3 0.5-1.1 1.2-1.9h0.1q0.7 0.8 1.2 1.9 0.4 1.1 0.7 2.3zm-8.5 0.8h3.6q-0.2 1.8 0 3.5h-3.6q-0.2-0.8-0.2-1.7 0-0.9 0.2-1.8zm3.7-0.8h-3.4q0.6-1.6 2-2.7 1.3-1.1 3-1.4-1.1 1.7-1.6 4.1z"/></svg>